# Blender 4.1.0
# www.blender.org
mtllib grass.mtl
o Cube
v -1.000000 -1.000000 1.000000
v -1.000000 1.000000 1.000000
v -1.000000 -1.000000 -1.000000
v -1.000000 1.000000 -1.000000
v 1.000000 -1.000000 1.000000
v 1.000000 1.000000 1.000000
v 1.000000 -1.000000 -1.000000
v 1.000000 1.000000 -1.000000
vn -1.0000 -0.0000 -0.0000
vn -0.0000 -0.0000 -1.0000
vn 1.0000 -0.0000 -0.0000
vn -0.0000 -0.0000 1.0000
vn -0.0000 -1.0000 -0.0000
vn -0.0000 1.0000 -0.0000
vt 0.250629 0.996171
vt 0.000557 0.667511
vt 0.249854 0.666473
vt 0.001387 -0.001096
vt 0.249560 0.332326
vt 0.000911 0.331695
vt 0.750825 0.664249
vt 0.999978 0.331152
vt 1.000907 0.662054
vt 0.501858 0.331486
vt 0.250629 0.664935
vt 0.251858 0.333940
vt 0.251105 0.332845
vt 0.001105 0.665476
vt 0.001105 0.332845
vt 0.750083 0.334151
vt 0.501103 0.663570
vt 0.500910 0.333885
vt 0.001333 0.997209
vt 0.250036 -0.000466
vt 0.749896 0.333348
vt 0.500014 0.665753
vt 0.251105 0.665476
vt 0.749942 0.663570
s 0
usemtl Material.001
f 2/1/1 3/2/1 1/3/1
f 4/4/2 7/5/2 3/6/2
f 8/7/3 5/8/3 7/9/3
f 6/10/4 1/11/4 5/12/4
f 7/13/5 1/14/5 3/15/5
f 4/16/6 6/17/6 8/18/6
f 2/1/1 4/19/1 3/2/1
f 4/4/2 8/20/2 7/5/2
f 8/7/3 6/21/3 5/8/3
f 6/10/4 2/22/4 1/11/4
f 7/13/5 5/23/5 1/14/5
f 4/16/6 2/24/6 6/17/6
